<svg xmlns="http://www.w3.org/2000/svg" viewBox="0 0 300 300"><defs><style>.cls-1{fill:#f0f1ee;}.cls-2{fill:none;stroke:#000;stroke-miterlimit:10;stroke-width:16px;}</style></defs><g id="account"><circle class="cls-1" cx="123.07" cy="145.71" r="112.67"/><circle class="cls-2" cx="156.16" cy="112.64" r="41.72"/><path d="M58.47,213.84c.76-2.21,1.63-4.38,2.51-6.58s2-4.24,3.11-6.34,2.37-4.08,3.61-6.13,2.72-3.91,4.13-5.86,3-3.74,4.62-5.57c.82-.89,1.67-1.75,2.52-2.63s1.67-1.77,2.58-2.59c1.81-1.63,3.61-3.3,5.53-4.84L90,171.07c1-.73,2-1.53,3-2.16A96.36,96.36,0,0,1,120,156.29a112.74,112.74,0,0,1,29.22-4.39l3.67-.09,3.86.16,3.87.23c1.27.15,2.53.33,3.8.51l3.79.56c1.25.25,2.48.54,3.72.83l3.69.88c1.22.34,2.41.74,3.61,1.12a102.86,102.86,0,0,1,26.51,13l3,2.07c1,.7,1.92,1.47,2.88,2.21l2.84,2.24c.94.76,1.81,1.6,2.71,2.39l2.67,2.42c.87.82,1.71,1.67,2.55,2.53l2.48,2.58c.8.89,1.6,1.78,2.37,2.69l2.3,2.73c.72.94,1.46,1.87,2.16,2.83,1.43,1.89,2.77,3.85,4,5.86s2.41,4.08,3.54,6.13c.56,1,1.05,2.11,1.52,3.19s.94,2.15,1.38,3.24c-2-1.38-3.68-2.86-5.56-4.19s-3.64-2.72-5.53-4c-.93-.64-1.87-1.26-2.77-1.91s-1.88-1.22-2.8-1.82-1.86-1.22-2.78-1.82l-2.84-1.7-2.8-1.72-2.86-1.59-2.83-1.6-2.88-1.49c-1-.49-1.9-1-2.86-1.48l-2.91-1.37c-1-.46-1.9-.95-2.88-1.38l-2.92-1.25a132.92,132.92,0,0,0-23.5-7.74l-2.94-.67-3-.47-2.94-.49-2.94-.27L158.7,175l-2.92-.06-2.92-.11-3.11.11a140.37,140.37,0,0,0-24.5,2.53,119.4,119.4,0,0,0-23.42,7.24c-1.91.81-3.75,1.75-5.67,2.61-1,.41-1.85,1-2.78,1.45s-1.87,1-2.81,1.47c-1.86,1-3.62,2.2-5.5,3.26s-3.58,2.38-5.42,3.56l-5.35,3.85c-1.75,1.35-3.47,2.75-5.29,4.11s-3.46,2.89-5.24,4.35S60.32,212.36,58.47,213.84Z"/><path d="M267.31,144.78a118.12,118.12,0,0,1-8.58,44.34A120.39,120.39,0,0,1,105.41,256.5a121.91,121.91,0,0,1-68.54-64.16A125.07,125.07,0,0,1,26,144.78,124,124,0,0,1,36.84,97.21,121.92,121.92,0,0,1,105.4,33a120.14,120.14,0,0,1,153.33,67.4A118.16,118.16,0,0,1,267.31,144.78Zm-5.92,0a109.87,109.87,0,0,0-2.16-21.4A105.43,105.43,0,0,0,151.69,38.62,104.27,104.27,0,0,0,79.11,72.2a103.18,103.18,0,0,0-20.78,33.92A101.72,101.72,0,0,0,52,144.78a102.29,102.29,0,0,0,27.06,72.6,104.24,104.24,0,0,0,32.65,23.89,105.65,105.65,0,0,0,147.5-75.09A109.79,109.79,0,0,0,261.39,144.78Z"/></g></svg>