<svg xmlns="http://www.w3.org/2000/svg" viewBox="0 0 300 300"><defs><style>.cls-1{fill:#f0f1ee;}.cls-2{fill:none;stroke:#000;stroke-miterlimit:10;stroke-width:9px;}</style></defs><g id="calendar"><polygon class="cls-1" points="236.53 267.2 179.09 267.2 27.05 267.2 27.05 94.88 236.53 94.88 236.53 267.2"/><path d="M253.33,246.5l-1.75-84.65c-.52-28-.88-55.92-1.09-83.86l6.64,6.63-13.1.32-13.09.24-26.18.49-52.37.64c-17.46.25-34.92.31-52.37.46L47.65,87l9-9v43.08c-.08,14.36-.08,28.72-.23,43.08s-.27,28.72-.46,43.08l-.39,21.54-.2,10.77-.26,10.77-7.45-7.45c34,.34,68.06.86,102.28,1.52Zm7.6,7.61-106.09,2.12c-35.6.66-71.4,1.18-107.19,1.52l-7.26.07-.19-7.51-.27-10.77-.2-10.77-.38-21.54q-.3-21.54-.47-43.08c-.15-14.36-.15-28.72-.22-43.08V69l9,0,52.37.21c17.45.15,34.91.21,52.37.46l52.37.64,26.18.49L244,71l13.1.32,6.68.16L263.76,78c-.21,29.5-.57,59.05-1.09,88.46Z"/><line class="cls-2" x1="48.77" y1="130.92" x2="258.25" y2="130.92"/><polygon points="214.91 41.95 203.91 106.99 192.91 41.95 214.91 41.95"/><polygon points="111.02 41.95 100.02 106.99 89.02 41.95 111.02 41.95"/></g></svg>