<svg xmlns="http://www.w3.org/2000/svg" viewBox="0 0 300 300"><defs><style>.cls-1{fill:#f0f1ee;}</style></defs><g id="shopping_bag" data-name="shopping bag"><rect class="cls-1" x="22.72" y="132.41" width="206.1" height="150.35"/><path d="M92.29,139.92a126.13,126.13,0,0,1-1.76-14.66,134,134,0,0,1-.16-14.87,97.38,97.38,0,0,1,5.82-29.93,63.2,63.2,0,0,1,7.51-14.21,51,51,0,0,1,11.78-12A49.46,49.46,0,0,1,130.85,47a62.88,62.88,0,0,1,16.44-2.19A63.91,63.91,0,0,1,163.69,47a49.75,49.75,0,0,1,15.39,7.28A50.39,50.39,0,0,1,190.9,66.19c.82,1.11,1.55,2.26,2.26,3.43s1.36,2.34,2,3.53a72.35,72.35,0,0,1,3.24,7.29,96.77,96.77,0,0,1,5.7,30,139.17,139.17,0,0,1-.21,14.88,130.78,130.78,0,0,1-1.79,14.65c-1.76-9.67-3.43-19.2-5.79-28.41s-5.24-18.1-9.41-26a59.59,59.59,0,0,0-3.35-5.65c-.62-.88-1.18-1.81-1.84-2.63s-1.28-1.69-2-2.46a40.48,40.48,0,0,0-9.14-8,36.71,36.71,0,0,0-11-4.6,49.53,49.53,0,0,0-12.34-1.44A48.78,48.78,0,0,0,135,62.2a36.69,36.69,0,0,0-11,4.62,41.66,41.66,0,0,0-9.15,8,59.34,59.34,0,0,0-7.21,10.75c-4.2,7.87-7.15,16.77-9.52,25.94S94,130.25,92.29,139.92Z"/><path d="M249.5,263l-23.34.56q-13.29.32-26.69.49l-13.37.14L173,264.3l-25.76.15-51.53.39-51.52.58-4.79.05-.06-4.9L38.82,223l-.55-37.59-.61-37.58-.72-37.59-.14-7.1,7.34-.1,51.52-.71,51.53-.53,51.53-.39,25.76-.17c8.59-.07,17.17.33,25.76.61l8.66.28-.27,8.11q-.64,19.53-1.43,38.91l-1.63,38.47c-.63,12.7-1.16,25.34-1.82,37.77l-.92,18.56-.42,9.22c-.12,3.08-.18,6.25-1.53,8.06Zm-.33-4.82a40,40,0,0,1-1.1-9l-.42-9.57-.92-19-1.81-37.41-1.64-36.71-1.43-36.26,8.39,8.39c-8.59.28-17.17.67-25.76.6L198.72,119l-51.53-.38-51.53-.54-51.52-.7,7.2-7.2-.72,37.59L50,185.39,49.46,223,49,260.57l-4.85-4.85,51.52.57,51.53.4,25.76.15,12.62.08,12.39.14c8.26.11,16.52.28,24.84.49l25,.63Z"/></g></svg>