<svg xmlns="http://www.w3.org/2000/svg" viewBox="0 0 300 300"><defs><style>.cls-1{fill:#f0f1ee;}.cls-2{fill:none;stroke:#000;stroke-miterlimit:10;stroke-width:12px;}</style></defs><g id="contact"><rect class="cls-1" x="24.48" y="74.82" width="214.94" height="155.42"/><path d="M254.2,60.65,148.66,62l-52.56.44-26.27.12c-8.76.06-17.53-.06-26.3.32l6.53-6.53,1.46,71.25,1.26,71.24-9.25-9.25L81.06,189l9.71-.16.16,10,1,62.3L73.9,253,109,221.26l35.27-31.57,3.34-3,4.69,0,53.07-.3c8.85,0,17.69.09,26.54.36s17.69.62,26.53,1.34l-10.8,10.79c.79-22.47,1.84-45,3-68S253.14,84.47,254.2,60.65Zm8.54-8.54,3.51,72.3c1.18,24.51,2.23,49.44,3,74.46l.31,9.91-11.11.89c-8.84.72-17.69,1.08-26.53,1.34s-17.69.34-26.54.35l-53.07-.29,8-3-36,30.73L88.22,269.36,69.8,284.94l.38-23.77,1-62.3,9.87,9.88-37.53-.62L34.11,208l.17-9.1,1.25-71.24L37,56.38l.14-6.79,6.39.27c9.14.38,18.28.26,27.44.32l27.45.12,54.92.44Z"/><line class="cls-2" x1="77.13" y1="100.85" x2="209.08" y2="100.85"/><line class="cls-2" x1="77.13" y1="137.12" x2="209.08" y2="137.12"/></g></svg>