<svg xmlns="http://www.w3.org/2000/svg" viewBox="0 0 300 300"><defs><style>.cls-1{fill:#f0f1ee;}</style></defs><g id="email"><rect class="cls-1" x="32.77" y="103.33" width="214.94" height="155.42"/><path d="M51.83,78c2.45,1.32,4.85,2.71,7.28,4.07l7.2,4.19c4.8,2.8,9.52,5.7,14.25,8.59,9.43,5.82,18.74,11.81,28,17.88S126.94,125,136,131.29c4.56,3.13,9.06,6.34,13.59,9.5l13.48,9.65h-7.61L169,140.79l13.58-9.51c9.1-6.28,18.24-12.5,27.49-18.58s18.56-12,28-17.87c4.73-2.9,9.45-5.79,14.25-8.59l7.2-4.19c2.43-1.35,4.83-2.75,7.29-4.06-2,1.93-4.1,3.77-6.14,5.65l-6.24,5.52c-4.16,3.68-8.39,7.27-12.62,10.85Q229.05,110.71,216,121c-8.66,6.88-17.44,13.61-26.25,20.28l-13.29,9.92L163.1,161l-3.81,2.78-3.8-2.78-13.38-9.79c-4.43-3.31-8.88-6.58-13.28-9.92q-13.23-10-26.25-20.29T76.83,100c-4.23-3.57-8.46-7.15-12.62-10.83L58,83.64C55.92,81.76,53.84,79.91,51.83,78Z"/><path d="M262.23,228.88c-.56-25.41-1.13-50.61-1.51-75.69s-.6-50.08-.64-75.2l6.69,6.69L253.34,85l-13.44.28L213,85.85q-26.86.45-53.73.78c-17.91.26-35.83.37-53.74.54l-53.73.31L61.32,78l0,38.86c-.07,13,0,25.9-.19,38.85s-.24,25.9-.43,38.86L60.38,214l-.19,9.72-.27,9.71-8.09-8.09c34.87.27,69.69.74,104.69,1.39ZM271.3,238l-109.23,2.16c-36.64.65-73.47,1.12-110.24,1.4l-7.88.06-.22-8.16-.26-9.71-.2-9.72-.37-19.42c-.18-13-.35-25.91-.43-38.86s-.12-25.9-.19-38.85l0-38.86V68.44l9.49.06,53.73.31c17.91.18,35.83.29,53.74.54s35.82.48,53.73.78l26.87.54,13.44.28,13.43.35,6.7.17V78c0,26.69-.24,53.5-.64,80.22S271.87,211.55,271.3,238Z"/></g></svg>