<svg id="favorite" xmlns="http://www.w3.org/2000/svg" viewBox="0 0 300 300"><defs><style>.cls-1{fill:#f0f1ee;}</style></defs><path class="cls-1" d="M130,249.07,51,170.13C-12.21,106.89,81.81,29.21,130,107.2c50.66-74.61,142.78-.91,79,62.93Z"/><path d="M74.65,161a103.07,103.07,0,0,1-8.18-9.5,81.65,81.65,0,0,1-6.72-10.68,60.91,60.91,0,0,1-7-24.38,54.59,54.59,0,0,1,4.43-25.18A56,56,0,0,1,72.56,70.81,54.63,54.63,0,0,1,95.73,59.44a52.25,52.25,0,0,1,26,1,61.44,61.44,0,0,1,22.59,12.72,84.57,84.57,0,0,1,9,9.17,109.54,109.54,0,0,1,7.5,10.27l-9.06-.2a97.29,97.29,0,0,1,12.55-15.57,75.9,75.9,0,0,1,7.7-6.7c1.34-1.07,2.8-2,4.22-3s2.93-1.83,4.48-2.63a58.59,58.59,0,0,1,20-6.59A54.82,54.82,0,0,1,222,59.29,56.64,56.64,0,0,1,263.34,105a59.53,59.53,0,0,1-.66,21.71,70.48,70.48,0,0,1-7.69,19.9c-.83,1.56-1.81,3-2.72,4.51s-1.94,2.9-3,4.28-2.08,2.77-3.2,4.08c-.55.66-1.09,1.33-1.66,2l-1.76,1.93c-1.21,1.36-2.25,2.37-3.36,3.52l-3.3,3.38-6.59,6.75c-4.4,4.49-8.76,9-13.2,13.47-17.83,17.73-34.87,36.26-54.44,52.26h0l-6.31,5.48-4.7-5.48c-6.08-7.08-12.32-14-18.56-20.91s-12.58-13.74-19-20.53-12.79-13.52-19.19-20.28ZM80,155.71,100,175.11c6.76,6.4,13.45,12.86,20.29,19.19S134,207,140.85,213.24s13.83,12.49,20.91,18.57h-11c16-19.55,34.48-36.57,52.19-54.38l26.8-26.27c7.91-8.08,14.21-17.72,16.79-28.1a43.32,43.32,0,0,0,1-15.73,41.23,41.23,0,0,0-4.91-14.94A42.11,42.11,0,0,0,202.22,71a46,46,0,0,0-15.83,4.5c-1.28.58-2.49,1.3-3.73,2s-2.43,1.47-3.59,2.32a63.66,63.66,0,0,0-6.74,5.39,85.49,85.49,0,0,0-11.61,13.27l-4.83,6.76-4.22-7a98.06,98.06,0,0,0-6.4-9.38,73.32,73.32,0,0,0-7.59-8.24A51.09,51.09,0,0,0,119,69.33a43.2,43.2,0,0,0-21.53-1.45A46.2,46.2,0,0,0,77.57,77,47.57,47.57,0,0,0,63.86,94.3,45.72,45.72,0,0,0,59.77,116a52,52,0,0,0,6.29,21.5,68.61,68.61,0,0,0,6.23,9.58A94.55,94.55,0,0,0,80,155.71Z"/></svg>