<svg xmlns="http://www.w3.org/2000/svg" viewBox="0 0 300 300"><defs><style>.cls-1{fill:#f0f1ee;}</style></defs><g id="facebook"><circle class="cls-1" cx="126.67" cy="150" r="93.62"/><path d="M245.05,150A97.11,97.11,0,0,1,238,186.44a98.75,98.75,0,0,1-125.92,55.15,100,100,0,0,1-56-52.66A102.24,102.24,0,0,1,47.21,150,101.38,101.38,0,0,1,56,111.06a99.91,99.91,0,0,1,56.05-52.67A98.52,98.52,0,0,1,238,113.56,97.11,97.11,0,0,1,245.05,150Zm-6.51,0a89.37,89.37,0,0,0-1.74-17.27,86.07,86.07,0,0,0-24.67-44.86,86.68,86.68,0,0,0-28.84-18.24A84.65,84.65,0,0,0,117.68,72,84.51,84.51,0,0,0,91.24,91.24a83.67,83.67,0,0,0-16.87,27.44A82.13,82.13,0,0,0,69.21,150a82.8,82.8,0,0,0,22,58.77,84.2,84.2,0,0,0,26.45,19.28,84.59,84.59,0,0,0,65.61,2.33,85.77,85.77,0,0,0,53.51-63.11A89.37,89.37,0,0,0,238.54,150Z"/><path d="M167.12,124.94v7.95h19.09L184.48,152H167.12v57.24H138.5V152H119.42V132.89H138.5V116.75c0-14.46,7.62-22,24.77-22h22.94v23.86H172.44C168,118.58,167.12,120.38,167.12,124.94Z"/></g></svg>