<svg xmlns="http://www.w3.org/2000/svg" viewBox="0 0 300 300"><defs><style>.cls-1{fill:#f0f1ee;}</style></defs><g id="instagram"><circle class="cls-1" cx="126.49" cy="150" r="93.62"/><path d="M244.87,150a97.11,97.11,0,0,1-7.07,36.44,98.75,98.75,0,0,1-125.92,55.15,100,100,0,0,1-56-52.66A102.43,102.43,0,0,1,47,150a101.58,101.58,0,0,1,8.8-38.94,99.91,99.91,0,0,1,56.05-52.67A98.52,98.52,0,0,1,237.8,113.56,97.11,97.11,0,0,1,244.87,150Zm-6.51,0a89.37,89.37,0,0,0-1.74-17.27,85.29,85.29,0,0,0-86.8-68.54A84.34,84.34,0,0,0,91.06,91.24a83.5,83.5,0,0,0-16.87,27.44A82.33,82.33,0,0,0,69,150a82.81,82.81,0,0,0,22,58.77,84.2,84.2,0,0,0,26.45,19.28,84.59,84.59,0,0,0,65.61,2.33,85.6,85.6,0,0,0,48.36-46.56,85.35,85.35,0,0,0,5.15-16.55A89.37,89.37,0,0,0,238.36,150Z"/><path d="M156.85,109.71c13.12,0,14.68.05,19.87.29,13.31.61,19.54,6.92,20.14,20.14.24,5.19.28,6.74.28,19.86s0,14.68-.28,19.86c-.61,13.21-6.81,19.54-20.14,20.15-5.19.24-6.74.29-19.87.29s-14.68-.05-19.86-.29c-13.35-.61-19.54-7-20.14-20.15-.24-5.18-.29-6.73-.29-19.86s0-14.67.29-19.86c.61-13.22,6.81-19.54,20.14-20.14C142.18,109.76,143.73,109.71,156.85,109.71Zm0-8.86c-13.34,0-15,.06-20.26.3-17.85.82-27.77,10.72-28.58,28.59-.25,5.24-.3,6.91-.3,20.26s.05,15,.29,20.26c.82,17.85,10.72,27.77,28.59,28.59,5.24.24,6.92.3,20.26.3s15-.06,20.27-.3c17.83-.82,27.77-10.72,28.58-28.59.24-5.24.3-6.91.3-20.26s-.06-15-.3-20.26c-.8-17.83-10.71-27.77-28.58-28.59C171.88,100.91,170.2,100.85,156.85,100.85Zm0,23.91A25.24,25.24,0,1,0,182.09,150,25.24,25.24,0,0,0,156.85,124.76Zm0,41.62A16.38,16.38,0,1,1,173.23,150,16.38,16.38,0,0,1,156.85,166.38Zm26.24-48.51a5.9,5.9,0,1,0,5.89,5.9A5.9,5.9,0,0,0,183.09,117.87Z"/></g></svg>