<svg xmlns="http://www.w3.org/2000/svg" viewBox="0 0 300 300"><defs><style>.cls-1{fill:#f0f1ee;}.cls-2{fill-rule:evenodd;}</style></defs><g id="pinterest"><circle class="cls-1" cx="135.18" cy="150" r="93.62"/><path d="M253.55,150a97.39,97.39,0,0,1-27.36,67.69,98.9,98.9,0,0,1-105.62,23.9A99.52,99.52,0,0,1,87.46,221a100.63,100.63,0,0,1-22.94-32.11A102.42,102.42,0,0,1,55.71,150a101.75,101.75,0,0,1,8.79-38.94,99.88,99.88,0,0,1,56.06-52.67,98.52,98.52,0,0,1,125.93,55.17A97.1,97.1,0,0,1,253.55,150Zm-6.5,0a89.38,89.38,0,0,0-1.75-17.27,85.29,85.29,0,0,0-86.79-68.54A84.34,84.34,0,0,0,99.75,91.24a83.5,83.5,0,0,0-16.87,27.44A82.14,82.14,0,0,0,77.71,150a82.8,82.8,0,0,0,22,58.77,84.34,84.34,0,0,0,58.78,27.06,85.59,85.59,0,0,0,86.79-68.56A89.38,89.38,0,0,0,247.05,150Z"/><path class="cls-2" d="M207.63,137.81c0,23.62-14.89,42.64-35.58,42.64-7,0-13.47-3.6-15.71-7.87l-4.27,16.3c-1.55,6-5.73,13.43-8.53,18-1.58-.49-3.14-1.06-4.67-1.66-.61-5.42-1.15-13.74.23-19.66,1.25-5.35,8.05-34.08,8.05-34.08a24.68,24.68,0,0,1-2.06-10.18c0-9.53,5.52-16.65,12.41-16.65,5.84,0,8.67,4.39,8.67,9.66,0,5.87-3.74,14.67-5.68,22.82-1.61,6.82,3.43,12.39,10.16,12.39,12.18,0,21.54-12.85,21.54-31.4,0-16.41-11.79-27.89-28.64-27.89-19.5,0-31,14.63-31,29.75,0,5.89,2.27,12.22,5.1,15.65a2.05,2.05,0,0,1,.48,2l-1.9,7.77c-.31,1.25-1,1.52-2.3.92-8.57-4-13.92-16.5-13.92-26.57,0-21.62,15.71-41.48,45.3-41.48C189.14,98.21,207.63,115.16,207.63,137.81Z"/></g></svg>