<svg xmlns="http://www.w3.org/2000/svg" viewBox="0 0 300 300"><defs><style>.cls-1{fill:#f0f1ee;}</style></defs><g id="search"><circle class="cls-1" cx="114.9" cy="121.29" r="77.85"/><polygon points="231.81 257.99 184.3 182.13 249.41 244.79 231.81 257.99"/><path d="M219.12,121.29a83.9,83.9,0,0,1-23.49,58.21,85.24,85.24,0,0,1-90.92,20.75,86.09,86.09,0,0,1-48.46-45.34,88.28,88.28,0,0,1-7.68-33.62,87.57,87.57,0,0,1,7.66-33.64A86.55,86.55,0,0,1,76.1,60a85.24,85.24,0,0,1,119.53,3.11,83.9,83.9,0,0,1,23.49,58.22Zm-7.69,0a71.46,71.46,0,0,0-46.24-67.06,70.37,70.37,0,0,0-54.64,2.17,70.29,70.29,0,0,0-21.9,16.11,69.37,69.37,0,0,0-13.9,22.82,68.06,68.06,0,0,0-4.18,26,68.71,68.71,0,0,0,18.06,48.79,70.13,70.13,0,0,0,21.91,16.11,70.36,70.36,0,0,0,54.66,2.16,71.61,71.61,0,0,0,46.23-67.06Z"/></g></svg>