<svg xmlns="http://www.w3.org/2000/svg" viewBox="0 0 300 300"><defs><style>.cls-1{fill:#f0f1ee;}</style></defs><g id="time"><circle class="cls-1" cx="125.77" cy="164.15" r="89.76"/><polygon points="154.93 84.29 150.04 158.45 148.71 155.01 204.32 223.72 141.15 161.88 139.97 160.73 139.82 158.45 134.93 84.29 154.93 84.29"/><path d="M241,157.45a97,97,0,0,1-7.07,36.44A98.72,98.72,0,0,1,108,249a99.55,99.55,0,0,1-33.1-20.54A100.58,100.58,0,0,1,52,196.38a102.28,102.28,0,0,1-8.81-38.93A100.35,100.35,0,0,1,74.87,86.39,99.56,99.56,0,0,1,108,65.84,98.53,98.53,0,0,1,233.91,121,97,97,0,0,1,241,157.45Zm-6.51,0a89.29,89.29,0,0,0-1.74-17.27,85.29,85.29,0,0,0-86.8-68.54A84.34,84.34,0,0,0,87.18,98.69,83.7,83.7,0,0,0,70.3,126.13a82.29,82.29,0,0,0-5.16,31.32,82.82,82.82,0,0,0,22,58.77,84.39,84.39,0,0,0,58.77,27.05,85.58,85.58,0,0,0,86.8-68.55A89.37,89.37,0,0,0,234.47,157.45Z"/></g></svg>