<svg xmlns="http://www.w3.org/2000/svg" viewBox="0 0 300 300"><defs><style>.cls-1{fill:#f0f1ee;}</style></defs><g id="youtube"><circle class="cls-1" cx="129.63" cy="150" r="93.62"/><path d="M248,150a97.11,97.11,0,0,1-7.07,36.44A98.75,98.75,0,0,1,115,241.59a100,100,0,0,1-56-52.66A102.24,102.24,0,0,1,50.17,150,101.38,101.38,0,0,1,59,111.06,99.91,99.91,0,0,1,115,58.39a98.52,98.52,0,0,1,125.93,55.17A97.11,97.11,0,0,1,248,150Zm-6.51,0a89.37,89.37,0,0,0-1.74-17.27,86.07,86.07,0,0,0-24.67-44.86,86.68,86.68,0,0,0-28.84-18.24A84.65,84.65,0,0,0,120.64,72,84.51,84.51,0,0,0,94.2,91.24a83.5,83.5,0,0,0-16.87,27.44A82.13,82.13,0,0,0,72.17,150a82.76,82.76,0,0,0,22,58.77,84.2,84.2,0,0,0,26.45,19.28,84.59,84.59,0,0,0,65.61,2.33,85.6,85.6,0,0,0,48.36-46.56,85.35,85.35,0,0,0,5.15-16.55A89.37,89.37,0,0,0,241.5,150Z"/><path d="M192.1,113.38c-15.18-1-49-1-64.14,0-16.41,1.12-18.34,11-18.46,37.13.12,26,2,36,18.46,37.12,15.16,1,49,1,64.14,0,16.41-1.12,18.35-11,18.47-37.12C210.45,124.46,208.53,114.5,192.1,113.38Zm-44.7,54V133.66l33.69,16.82Z"/></g></svg>