<svg id="Layer_1" data-name="Layer 1" xmlns="http://www.w3.org/2000/svg" viewBox="0 0 1000 254.44"><defs><style>.cls-1{fill:#fff;}</style></defs><path class="cls-1" d="M356,75c-3.9,0-10,7-16.77,19.3l-1.37-1.56c8-16,17.55-27.49,27.3-27.49,4.68,0,8,3.7,8,11.5,0,21.64-24.17,88.13-24,106.85,0,3.32,1,5.27,2.93,5.27,3.9,0,9.94-6.83,17-19.31l1.36,1.56c-8.18,16-17.74,28.66-27.49,28.66-5.07,0-8.58-3.7-8.58-11.5,0-18.13,24.57-87.55,24.57-108C358.89,77,357.72,75,356,75Z"/><path class="cls-1" d="M402.61,75c-3.9,0-9.95,7-16.77,19.3l-1.37-1.56c8-16,17.55-27.49,27.3-27.49,4.68,0,8,3.7,8,11.5,0,21.64-24.17,88.13-24,106.85,0,3.32,1,5.27,2.93,5.27,3.9,0,9.94-6.83,17-19.31l1.36,1.56c-8.19,16-17.74,28.66-27.49,28.66-5.07,0-8.58-3.7-8.58-11.5,0-18.13,24.57-87.55,24.57-108C405.53,77,404.36,75,402.61,75Z"/><path class="cls-1" d="M448.6,141.67a88.1,88.1,0,0,0-2.48,20.47c0,17.79,8.69,26.89,18.82,26.89,12.41,0,23.37-11.38,32.26-27.92l2.07,1.24c-10.54,22.13-24.4,37.43-42.19,37.43-14.48,0-26.47-13-26.47-32.88,0-32.47,20.89-69.08,58.12-69.08,11,0,17,5.59,17,12.82C505.69,123.05,485.42,135.88,448.6,141.67Zm.42-1.45c29.36-7.65,44.05-19.44,44.05-29,0-5.37-3.93-9.92-11-9.92C466.6,101.34,454.39,119.54,449,140.22Z"/><path class="cls-1" d="M762.35,196.29c41.11-2.27,44.64-6.65,50.2-25.75l7.82-33.82H823c-2.49,22.19-5.65,45.26-5.94,63.05l-94.72-.34v-2.63l12.76-1.94c9.89-1.72,10.12-3,10.32-58.64C745.65,74,745.21,73.6,734.67,72l-12.52-1.8V67.58l64.17.24v2.63l-17.15,1.92c-7.47.85-8.58,3-8.78,59.74C760.2,182.66,761.05,191.23,762.35,196.29Z"/><path class="cls-1" d="M933.94,199.78H828.46v-2.63l13.4-2.2c9.23-1.54,9.45-3.08,9.45-59.12,0-61.53-.44-62-11-63.51L827.8,70.56V67.93H931.31c.88,14.72,2.63,33.18,4.61,50.76H933.5L926.91,95c-6.15-19.78-10.33-22.2-58.9-24-1.09,5.28-1.75,15-1.75,60.44,32.52-.22,35.16-2.64,37.36-14.73l2.41-16h1.76c-.22,15.61,2.2,49.67,3.74,64.83h-1.76l-4-15.38c-3.73-13.63-7.25-15.61-39.55-16,0,47,.66,57.13,2,62.41,49.45-1.54,55.17-4,60.66-23.52l6.37-25.05h2.42C935.92,165.94,934.38,184.62,933.94,199.78Z"/><polygon class="cls-1" points="285.11 67.93 270.76 67.93 263.4 77.78 277.94 93.97 292.47 77.78 285.11 67.93"/><path class="cls-1" d="M284.55,69.06c-4.6,0-9.17.06-13.79,0l.93-.46c-1.15,1.7-2.23,3.45-3.32,5.2s-2.13,3.52-3.12,5.34l-.14-2.92c2.41,2.71,4.84,5.41,7.31,8.06,1.23,1.33,2.45,2.67,3.7,4s2.52,2.62,3.82,3.89h-4q3.58-4.08,7.28-8.08c2.45-2.67,4.93-5.32,7.51-7.88l-.14,3Zm1.13-2.26c2.78,3,5.72,6.22,8.67,9.57l1.18,1.34-1.31,1.64c-2.27,2.83-4.63,5.58-7,8.3s-4.8,5.44-7.25,8.11l-2.15,2.36-1.85-2.36c-1.13-1.42-2.27-2.83-3.45-4.21s-2.38-2.74-3.57-4.11c-2.37-2.74-4.79-5.44-7.23-8.12l-1.44-1.6,1.31-1.32c1.46-1.47,2.84-3,4.23-4.51s2.75-3.07,4-4.65l.38-.46h.54C275.72,66.74,280.71,66.74,285.68,66.8Z"/><polygon class="cls-1" points="556.23 67.93 541.88 67.93 534.52 77.78 549.05 93.97 563.59 77.78 556.23 67.93"/><path class="cls-1" d="M555.66,69.06c-4.59,0-9.17.06-13.78,0l.92-.46c-1.15,1.7-2.23,3.45-3.31,5.2s-2.13,3.52-3.13,5.34l-.13-2.92c2.41,2.71,4.84,5.41,7.3,8.06,1.24,1.33,2.46,2.67,3.71,4s2.52,2.62,3.82,3.89h-4q3.6-4.08,7.29-8.08c2.45-2.67,4.93-5.32,7.5-7.88l-.13,3Zm1.14-2.26c2.78,3,5.72,6.22,8.67,9.57l1.18,1.34-1.31,1.64c-2.27,2.83-4.64,5.58-7,8.3s-4.8,5.44-7.25,8.11l-2.16,2.36-1.85-2.36c-1.12-1.42-2.26-2.83-3.45-4.21s-2.37-2.74-3.56-4.11q-3.57-4.11-7.23-8.12l-1.45-1.6,1.32-1.32c1.46-1.47,2.84-3,4.23-4.51s2.74-3.07,4.05-4.65l.38-.46h.54C546.84,66.74,551.83,66.74,556.8,66.8Z"/><path class="cls-1" d="M324.29,197c-5.35-2.44-10.71-15.45-24.63-46.65-5.81-12.7-16.21-34.88-20.49-45.28H277c-30.89,67.76-34.58,79.53-39.27,85.6-3.27,4.23-10.57,6.23-17.39,6.14a21.82,21.82,0,0,1-7.2-1c-8.71-2.39-11.21-3.34-13.41-64-2.19-56-2.41-57.8,8.35-59.34l12.75-2-.22-2.63H181.51c-17.14,40.65-27.25,63.07-48.78,107.9A1096,1096,0,0,1,82.18,67.93H37.13l-.22,2.63,13.41,1.76c5.49.66,9.23,1.54,12.3,3.3C55.15,186.6,55.81,193,44.16,195.17l-11.86,2v2.63h68.56v-2.63l-23.29-2.86c-13.41-2.2-13.63-8.35-12.09-116.47a33.72,33.72,0,0,1,5,7.25c17.15,30.54,38,78.45,54.29,114.71h2.41c24.4-55.59,36.26-82.41,54.94-122.4.44,5.71,1.1,19.34,2.64,57.79,2.2,56.26,2.64,58.46-11.21,60l-20,2v2.63H269.08V198l-12.24-1.23c-5.36-.61-8.27-2.6-8.27-7.95,0-3.11,2.15-11.34,5.81-22.39.48-1.47,1-3,1.53-4.54h0l.9-2.6h0c.09-.26.19-.53.28-.81,4.09-11.59,9.49-25.21,15.62-39.12,3.76,7.52,11.76,24.06,17,35.41l.38.84c.16.37.33.73.49,1.08.47.92.78,1.84,1.24,2.75h0l1.08,2.45h0c.83,1.85,1.67,3.76,2.51,5.7,4.73,11,9.26,22.58,9.26,25.05,0,3.06-2.29,4-7.65,4.43l-10.71.93v1.83h40.24V198Z"/><path class="cls-1" d="M678.5,128.58c13-5.05,25-18,25-32.08,0-18.68-11.43-28.57-40-28.57H600.26v2.63l12.31,1.76c10.55,1.54,10.77,2,10.77,64,0,55.6-2.08,56-9.21,59.24-2.43,1.08-7.62,1.56-10.8,1.45-6.07-.22-5.15-.53-8.12-1.68-6.13-2.4-10.47-13.71-24.4-44.91-5.81-12.7-16.21-34.88-20.49-45.28h-2.14c-30.89,67.76-39,90.4-44.66,92.09l-2.15.77v1.83h38.86V198L528,196.72c-5.36-.61-8.26-2.6-8.26-7.95,0-3.11,2.14-11.34,5.81-22.39.47-1.47,1-3,1.53-4.54h0l.91-2.6h0c.1-.26.19-.53.29-.81,4.09-11.59,9.48-25.21,15.62-39.12,3.75,7.52,11.76,24.06,17,35.41l.38.84c.17.37.33.73.5,1.08.46.92.77,1.84,1.23,2.75h0l1.08,2.45h0c.83,1.85,1.67,3.76,2.51,5.7,4.74,11,9.27,22.58,9.27,25.05,0,3.06-2.29,4-7.65,4.43l-10.71.93v1.83H666.85c26.81,0,47-18.68,47-39.33C713.88,143.09,704.43,131,678.5,128.58ZM640.26,71c36.48.66,47.91,4.62,47.91,27.47,0,13.63-4.4,24.84-12.09,29.89-2.64-.22-5.5-.22-8.35-.22-9.89,0-19.56-.22-29.45,0C638.28,82.65,638.94,75.84,640.26,71Zm0,125.71c-1.32-5.06-2-13.41-2-63.51a221.08,221.08,0,0,1,29-2.42c23.73,0,30.11,16,30.11,35.38C697.4,187.48,693.22,192.53,640.26,196.71Z"/></svg>