<svg id="Layer_1" data-name="Layer 1" xmlns="http://www.w3.org/2000/svg" viewBox="0 0 285.18 254.44"><defs><style>.cls-1{fill:#fff;}</style></defs><path class="cls-1" d="M119.12,182.56H54.71v-2.48l11.15-1.85c10.94-2.07,10.32-8.06,17.34-112.3-2.89-1.65-6.4-2.48-11.56-3.1L59.05,61.18l.21-2.48h42.31a1028.32,1028.32,0,0,0,47.48,101.36C169.28,118,178.78,96.89,194.88,58.7h36.74l.21,2.48-12,1.86c-10.12,1.44-9.55,3.08-7.85,55.73.94,29.08.6,46.27.26,54.55a23.24,23.24,0,0,1-3.71,11.74c-8,12.38-20.66,25.5-32.32,28.91-11.45,3.34-37.88,8.31-37.88,8.31l9.93-12.59s19.37,1.06,29.59-4C198,195.85,198,177.25,198,121.87c0-36.15-2.07-48.92-2.48-54.29-17.55,37.57-28.7,62.75-51.61,115h-2.27c-15.28-34.06-34.89-79.06-51-107.76A31.89,31.89,0,0,0,85.88,68C84.44,169.56,84.65,175.34,97.24,177.4l21.88,2.68Z"/><polygon class="cls-1" points="212.58 19.27 198.31 19.27 190.98 29.08 205.44 45.18 219.9 29.08 212.58 19.27"/></svg>