<svg id="Layer_1" data-name="Layer 1" xmlns="http://www.w3.org/2000/svg" viewBox="0 0 285.18 254.44"><defs><style>.cls-1{fill:#ebf2da;}</style></defs><path d="M119.12,182.56H54.71v-2.48l11.15-1.85c10.94-2.07,10.32-8.06,17.34-112.3-2.89-1.65-6.4-2.48-11.56-3.1L59.05,61.18l.21-2.48h42.31a1028.32,1028.32,0,0,0,47.48,101.36C169.28,118,178.78,96.89,194.88,58.7h36.74l.21,2.48-12,1.86c-10.12,1.44-9.55,3.08-7.85,55.73.94,29.08.6,46.27.26,54.55a23.24,23.24,0,0,1-3.71,11.74c-8,12.38-20.66,25.5-32.32,28.91-11.45,3.34-37.88,8.31-37.88,8.31l9.93-12.59s19.37,1.06,29.59-4C198,195.85,198,177.25,198,121.87c0-36.15-2.07-48.92-2.48-54.29-17.55,37.57-28.7,62.75-51.61,115h-2.27c-15.28-34.06-34.89-79.06-51-107.76A31.89,31.89,0,0,0,85.88,68C84.44,169.56,84.65,175.34,97.24,177.4l21.88,2.68Z"/><polygon class="cls-1" points="210.62 18.82 196.27 18.82 188.91 28.67 203.44 44.86 217.98 28.67 210.62 18.82"/><path d="M210.05,20c-4.6.05-9.17.06-13.78,0l.92-.46c-1.15,1.7-2.23,3.45-3.31,5.2s-2.14,3.52-3.13,5.34l-.13-2.92c2.41,2.72,4.83,5.41,7.3,8.07,1.23,1.33,2.45,2.67,3.71,4s2.51,2.61,3.81,3.88h-4Q205,39,208.73,35c2.44-2.67,4.92-5.32,7.5-7.88l-.13,3Zm1.13-2.26c2.78,3,5.72,6.22,8.68,9.58L221,28.6l-1.31,1.64c-2.27,2.84-4.63,5.59-7,8.3s-4.8,5.44-7.25,8.12L203.29,49l-1.85-2.35c-1.12-1.43-2.27-2.84-3.45-4.21s-2.37-2.75-3.56-4.12c-2.38-2.73-4.8-5.44-7.23-8.12l-1.45-1.59,1.31-1.33c1.46-1.46,2.85-3,4.24-4.51s2.74-3.07,4-4.65l.37-.46h.55C201.22,17.63,206.21,17.64,211.18,17.69Z"/></svg>